<?xml version="1.0" standalone="no"?>
 <!DOCTYPE svg PUBLIC "-//W3C//DTD SVG 1.1//EN" 
 "http://www.w3.org/Graphics/SVG/1.1/DTD/svg11.dtd"> 
<svg
  xmlns:svg="http://www.w3.org/2000/svg"
  xmlns="http://www.w3.org/2000/svg"
  xmlns:xlink="http://www.w3.org/1999/xlink"
  version="1.1"
  width="8.155940cm" height="5.981700cm" viewBox="0 0 32110 23550">
<title>SVG Picture created as Meshinger-F_Paste.svg date 2021/03/08 20:53:31 </title>
  <desc>Picture generated by PCBNEW </desc>
<g style="fill:#000000; fill-opacity:1;stroke:#000000; stroke-opacity:1;
stroke-linecap:round; stroke-linejoin:round;"
 transform="translate(0 0) scale(1 1)">
</g>
<g style="fill:#000000; fill-opacity:0.0; 
stroke:#000000; stroke-width:-0.000393701; stroke-opacity:1; 
stroke-linecap:round; stroke-linejoin:round;">
</g>
<g style="fill:#000000; fill-opacity:1.0; 
stroke:#000000; stroke-width:3.93701; stroke-opacity:1; 
stroke-linecap:round; stroke-linejoin:round;">
<path style="fill:#000000; fill-opacity:1.0; 
stroke:#000000; stroke-width:3.93701; stroke-opacity:1; 
stroke-linecap:round; stroke-linejoin:round;fill-rule:evenodd;"
d="M 6629.64,7736.22
6629.64,7834.65
6373.73,7834.65
6373.73,7736.22
" /> 
<path style="fill:#000000; fill-opacity:1.0; 
stroke:#000000; stroke-width:3.93701; stroke-opacity:1; 
stroke-linecap:round; stroke-linejoin:round;fill-rule:evenodd;"
d="M 6629.64,7539.37
6629.64,7637.8
6373.73,7637.8
6373.73,7539.37
" /> 
<path style="fill:#000000; fill-opacity:1.0; 
stroke:#000000; stroke-width:3.93701; stroke-opacity:1; 
stroke-linecap:round; stroke-linejoin:round;fill-rule:evenodd;"
d="M 6629.64,7342.52
6629.64,7440.95
6373.73,7440.95
6373.73,7342.52
" /> 
<path style="fill:#000000; fill-opacity:1.0; 
stroke:#000000; stroke-width:3.93701; stroke-opacity:1; 
stroke-linecap:round; stroke-linejoin:round;fill-rule:evenodd;"
d="M 6629.64,7145.67
6629.64,7244.09
6373.73,7244.09
6373.73,7145.67
" /> 
<path style="fill:#000000; fill-opacity:1.0; 
stroke:#000000; stroke-width:3.93701; stroke-opacity:1; 
stroke-linecap:round; stroke-linejoin:round;fill-rule:evenodd;"
d="M 6629.64,6948.82
6629.64,7047.24
6373.73,7047.24
6373.73,6948.82
" /> 
<path style="fill:#000000; fill-opacity:1.0; 
stroke:#000000; stroke-width:3.93701; stroke-opacity:1; 
stroke-linecap:round; stroke-linejoin:round;fill-rule:evenodd;"
d="M 6629.64,6751.97
6629.64,6850.39
6373.73,6850.39
6373.73,6751.97
" /> 
<path style="fill:#000000; fill-opacity:1.0; 
stroke:#000000; stroke-width:3.93701; stroke-opacity:1; 
stroke-linecap:round; stroke-linejoin:round;fill-rule:evenodd;"
d="M 6629.64,6555.12
6629.64,6653.54
6373.73,6653.54
6373.73,6555.12
" /> 
<path style="fill:#000000; fill-opacity:1.0; 
stroke:#000000; stroke-width:3.93701; stroke-opacity:1; 
stroke-linecap:round; stroke-linejoin:round;fill-rule:evenodd;"
d="M 6629.64,6358.27
6629.64,6456.69
6373.73,6456.69
6373.73,6358.27
" /> 
<path style="fill:#000000; fill-opacity:1.0; 
stroke:#000000; stroke-width:3.93701; stroke-opacity:1; 
stroke-linecap:round; stroke-linejoin:round;fill-rule:evenodd;"
d="M 6629.64,3208.66
6629.64,3307.09
6373.73,3307.09
6373.73,3208.66
" /> 
<path style="fill:#000000; fill-opacity:1.0; 
stroke:#000000; stroke-width:3.93701; stroke-opacity:1; 
stroke-linecap:round; stroke-linejoin:round;fill-rule:evenodd;"
d="M 6629.64,3405.51
6629.64,3503.94
6373.73,3503.94
6373.73,3405.51
" /> 
<path style="fill:#000000; fill-opacity:1.0; 
stroke:#000000; stroke-width:3.93701; stroke-opacity:1; 
stroke-linecap:round; stroke-linejoin:round;fill-rule:evenodd;"
d="M 6629.64,3602.36
6629.64,3700.79
6373.73,3700.79
6373.73,3602.36
" /> 
<path style="fill:#000000; fill-opacity:1.0; 
stroke:#000000; stroke-width:3.93701; stroke-opacity:1; 
stroke-linecap:round; stroke-linejoin:round;fill-rule:evenodd;"
d="M 6629.64,3799.21
6629.64,3897.64
6373.73,3897.64
6373.73,3799.21
" /> 
<path style="fill:#000000; fill-opacity:1.0; 
stroke:#000000; stroke-width:3.93701; stroke-opacity:1; 
stroke-linecap:round; stroke-linejoin:round;fill-rule:evenodd;"
d="M 6629.64,3996.06
6629.64,4094.49
6373.73,4094.49
6373.73,3996.06
" /> 
<path style="fill:#000000; fill-opacity:1.0; 
stroke:#000000; stroke-width:3.93701; stroke-opacity:1; 
stroke-linecap:round; stroke-linejoin:round;fill-rule:evenodd;"
d="M 6629.64,4192.91
6629.64,4291.34
6373.73,4291.34
6373.73,4192.91
" /> 
<path style="fill:#000000; fill-opacity:1.0; 
stroke:#000000; stroke-width:3.93701; stroke-opacity:1; 
stroke-linecap:round; stroke-linejoin:round;fill-rule:evenodd;"
d="M 6629.64,4389.76
6629.64,4488.19
6373.73,4488.19
6373.73,4389.76
" /> 
<path style="fill:#000000; fill-opacity:1.0; 
stroke:#000000; stroke-width:3.93701; stroke-opacity:1; 
stroke-linecap:round; stroke-linejoin:round;fill-rule:evenodd;"
d="M 6629.64,4586.61
6629.64,4685.04
6373.73,4685.04
6373.73,4586.61
" /> 
<path style="fill:#000000; fill-opacity:1.0; 
stroke:#000000; stroke-width:3.93701; stroke-opacity:1; 
stroke-linecap:round; stroke-linejoin:round;fill-rule:evenodd;"
d="M 6629.64,4783.46
6629.64,4881.89
6373.73,4881.89
6373.73,4783.46
" /> 
<path style="fill:#000000; fill-opacity:1.0; 
stroke:#000000; stroke-width:3.93701; stroke-opacity:1; 
stroke-linecap:round; stroke-linejoin:round;fill-rule:evenodd;"
d="M 6629.64,4980.32
6629.64,5078.74
6373.73,5078.74
6373.73,4980.32
" /> 
<path style="fill:#000000; fill-opacity:1.0; 
stroke:#000000; stroke-width:3.93701; stroke-opacity:1; 
stroke-linecap:round; stroke-linejoin:round;fill-rule:evenodd;"
d="M 6629.64,5177.17
6629.64,5275.59
6373.73,5275.59
6373.73,5177.17
" /> 
<path style="fill:#000000; fill-opacity:1.0; 
stroke:#000000; stroke-width:3.93701; stroke-opacity:1; 
stroke-linecap:round; stroke-linejoin:round;fill-rule:evenodd;"
d="M 6629.64,6161.42
6629.64,6259.84
6373.73,6259.84
6373.73,6161.42
" /> 
<path style="fill:#000000; fill-opacity:1.0; 
stroke:#000000; stroke-width:3.93701; stroke-opacity:1; 
stroke-linecap:round; stroke-linejoin:round;fill-rule:evenodd;"
d="M 6629.64,5964.57
6629.64,6062.99
6373.73,6062.99
6373.73,5964.57
" /> 
<path style="fill:#000000; fill-opacity:1.0; 
stroke:#000000; stroke-width:3.93701; stroke-opacity:1; 
stroke-linecap:round; stroke-linejoin:round;fill-rule:evenodd;"
d="M 6629.64,5767.72
6629.64,5866.14
6373.73,5866.14
6373.73,5767.72
" /> 
<path style="fill:#000000; fill-opacity:1.0; 
stroke:#000000; stroke-width:3.93701; stroke-opacity:1; 
stroke-linecap:round; stroke-linejoin:round;fill-rule:evenodd;"
d="M 6629.64,5570.87
6629.64,5669.29
6373.73,5669.29
6373.73,5570.87
" /> 
<path style="fill:#000000; fill-opacity:1.0; 
stroke:#000000; stroke-width:3.93701; stroke-opacity:1; 
stroke-linecap:round; stroke-linejoin:round;fill-rule:evenodd;"
d="M 6629.64,5374.02
6629.64,5472.44
6373.73,5472.44
6373.73,5374.02
" /> 
<g >
</g>
<g >
</g>
<g >
</g>
<g >
</g>
<g >
</g>
<g style="fill:#000000; fill-opacity:1.0; 
stroke:#000000; stroke-width:3.93701; stroke-opacity:1; 
stroke-linecap:round; stroke-linejoin:round;">
</g>
<g style="fill:#000000; fill-opacity:1.0; 
stroke:#000000; stroke-width:0; stroke-opacity:1; 
stroke-linecap:round; stroke-linejoin:round;">
<path style="fill:#000000; fill-opacity:1.0; 
stroke:#000000; stroke-width:0; stroke-opacity:1; 
stroke-linecap:round; stroke-linejoin:round;fill-rule:evenodd;"
d="M 26747.8,18710.6
26747.8,17923.2
27220.2,17923.2
27220.2,18710.6
Z" /> 
<path style="fill:#000000; fill-opacity:1.0; 
stroke:#000000; stroke-width:0; stroke-opacity:1; 
stroke-linecap:round; stroke-linejoin:round;fill-rule:evenodd;"
d="M 25960.3,18710.6
25960.3,17923.2
26432.8,17923.2
26432.8,18710.6
Z" /> 
<path style="fill:#000000; fill-opacity:1.0; 
stroke:#000000; stroke-width:0; stroke-opacity:1; 
stroke-linecap:round; stroke-linejoin:round;fill-rule:evenodd;"
d="M 25172.9,18710.6
25172.9,17923.2
25645.4,17923.2
25645.4,18710.6
Z" /> 
<path style="fill:#000000; fill-opacity:1.0; 
stroke:#000000; stroke-width:0; stroke-opacity:1; 
stroke-linecap:round; stroke-linejoin:round;fill-rule:evenodd;"
d="M 24385.5,18710.6
24385.5,17923.2
24858,17923.2
24858,18710.6
Z" /> 
<path style="fill:#000000; fill-opacity:1.0; 
stroke:#000000; stroke-width:0; stroke-opacity:1; 
stroke-linecap:round; stroke-linejoin:round;fill-rule:evenodd;"
d="M 23598.1,18710.6
23598.1,17923.2
24070.6,17923.2
24070.6,18710.6
Z" /> 
<path style="fill:#000000; fill-opacity:1.0; 
stroke:#000000; stroke-width:0; stroke-opacity:1; 
stroke-linecap:round; stroke-linejoin:round;fill-rule:evenodd;"
d="M 22810.7,18710.6
22810.7,17923.2
23283.2,17923.2
23283.2,18710.6
Z" /> 
<path style="fill:#000000; fill-opacity:1.0; 
stroke:#000000; stroke-width:0; stroke-opacity:1; 
stroke-linecap:round; stroke-linejoin:round;fill-rule:evenodd;"
d="M 22023.3,18710.6
22023.3,17923.2
22495.8,17923.2
22495.8,18710.6
Z" /> 
<path style="fill:#000000; fill-opacity:1.0; 
stroke:#000000; stroke-width:0; stroke-opacity:1; 
stroke-linecap:round; stroke-linejoin:round;fill-rule:evenodd;"
d="M 21235.9,18710.6
21235.9,17923.2
21708.4,17923.2
21708.4,18710.6
Z" /> 
<path style="fill:#000000; fill-opacity:1.0; 
stroke:#000000; stroke-width:0; stroke-opacity:1; 
stroke-linecap:round; stroke-linejoin:round;fill-rule:evenodd;"
d="M 20448.5,18710.6
20448.5,17923.2
20921,17923.2
20921,18710.6
Z" /> 
<path style="fill:#000000; fill-opacity:1.0; 
stroke:#000000; stroke-width:0; stroke-opacity:1; 
stroke-linecap:round; stroke-linejoin:round;fill-rule:evenodd;"
d="M 19661.1,18710.6
19661.1,17923.2
20133.6,17923.2
20133.6,18710.6
Z" /> 
<path style="fill:#000000; fill-opacity:1.0; 
stroke:#000000; stroke-width:0; stroke-opacity:1; 
stroke-linecap:round; stroke-linejoin:round;fill-rule:evenodd;"
d="M 18873.7,18710.6
18873.7,17923.2
19346.2,17923.2
19346.2,18710.6
Z" /> 
<path style="fill:#000000; fill-opacity:1.0; 
stroke:#000000; stroke-width:0; stroke-opacity:1; 
stroke-linecap:round; stroke-linejoin:round;fill-rule:evenodd;"
d="M 18086.3,18710.6
18086.3,17923.2
18558.8,17923.2
18558.8,18710.6
Z" /> 
<path style="fill:#000000; fill-opacity:1.0; 
stroke:#000000; stroke-width:0; stroke-opacity:1; 
stroke-linecap:round; stroke-linejoin:round;fill-rule:evenodd;"
d="M 17298.9,18710.6
17298.9,17923.2
17771.4,17923.2
17771.4,18710.6
Z" /> 
<path style="fill:#000000; fill-opacity:1.0; 
stroke:#000000; stroke-width:0; stroke-opacity:1; 
stroke-linecap:round; stroke-linejoin:round;fill-rule:evenodd;"
d="M 16511.5,18710.6
16511.5,17923.2
16984,17923.2
16984,18710.6
Z" /> 
<path style="fill:#000000; fill-opacity:1.0; 
stroke:#000000; stroke-width:0; stroke-opacity:1; 
stroke-linecap:round; stroke-linejoin:round;fill-rule:evenodd;"
d="M 15724.1,18710.6
15724.1,17923.2
16196.6,17923.2
16196.6,18710.6
Z" /> 
<path style="fill:#000000; fill-opacity:1.0; 
stroke:#000000; stroke-width:0; stroke-opacity:1; 
stroke-linecap:round; stroke-linejoin:round;fill-rule:evenodd;"
d="M 14936.7,18710.6
14936.7,17923.2
15409.2,17923.2
15409.2,18710.6
Z" /> 
<path style="fill:#000000; fill-opacity:1.0; 
stroke:#000000; stroke-width:0; stroke-opacity:1; 
stroke-linecap:round; stroke-linejoin:round;fill-rule:evenodd;"
d="M 14149.3,18710.6
14149.3,17923.2
14621.8,17923.2
14621.8,18710.6
Z" /> 
<path style="fill:#000000; fill-opacity:1.0; 
stroke:#000000; stroke-width:0; stroke-opacity:1; 
stroke-linecap:round; stroke-linejoin:round;fill-rule:evenodd;"
d="M 13361.9,18710.6
13361.9,17923.2
13834.4,17923.2
13834.4,18710.6
Z" /> 
<path style="fill:#000000; fill-opacity:1.0; 
stroke:#000000; stroke-width:0; stroke-opacity:1; 
stroke-linecap:round; stroke-linejoin:round;fill-rule:evenodd;"
d="M 12574.5,18710.6
12574.5,17923.2
13047,17923.2
13047,18710.6
Z" /> 
<path style="fill:#000000; fill-opacity:1.0; 
stroke:#000000; stroke-width:0; stroke-opacity:1; 
stroke-linecap:round; stroke-linejoin:round;fill-rule:evenodd;"
d="M 12023.3,17175.2
11235.9,17175.2
11235.9,16702.8
12023.3,16702.8
Z" /> 
<path style="fill:#000000; fill-opacity:1.0; 
stroke:#000000; stroke-width:0; stroke-opacity:1; 
stroke-linecap:round; stroke-linejoin:round;fill-rule:evenodd;"
d="M 12023.3,16387.8
11235.9,16387.8
11235.9,15915.4
12023.3,15915.4
Z" /> 
<path style="fill:#000000; fill-opacity:1.0; 
stroke:#000000; stroke-width:0; stroke-opacity:1; 
stroke-linecap:round; stroke-linejoin:round;fill-rule:evenodd;"
d="M 12023.3,15600.4
11235.9,15600.4
11235.9,15128
12023.3,15128
Z" /> 
<path style="fill:#000000; fill-opacity:1.0; 
stroke:#000000; stroke-width:0; stroke-opacity:1; 
stroke-linecap:round; stroke-linejoin:round;fill-rule:evenodd;"
d="M 12023.3,14813
11235.9,14813
11235.9,14340.6
12023.3,14340.6
Z" /> 
<path style="fill:#000000; fill-opacity:1.0; 
stroke:#000000; stroke-width:0; stroke-opacity:1; 
stroke-linecap:round; stroke-linejoin:round;fill-rule:evenodd;"
d="M 12023.3,14025.6
11235.9,14025.6
11235.9,13553.1
12023.3,13553.1
Z" /> 
<path style="fill:#000000; fill-opacity:1.0; 
stroke:#000000; stroke-width:0; stroke-opacity:1; 
stroke-linecap:round; stroke-linejoin:round;fill-rule:evenodd;"
d="M 12023.3,13238.2
11235.9,13238.2
11235.9,12765.7
12023.3,12765.7
Z" /> 
<path style="fill:#000000; fill-opacity:1.0; 
stroke:#000000; stroke-width:0; stroke-opacity:1; 
stroke-linecap:round; stroke-linejoin:round;fill-rule:evenodd;"
d="M 12023.3,12450.8
11235.9,12450.8
11235.9,11978.3
12023.3,11978.3
Z" /> 
<path style="fill:#000000; fill-opacity:1.0; 
stroke:#000000; stroke-width:0; stroke-opacity:1; 
stroke-linecap:round; stroke-linejoin:round;fill-rule:evenodd;"
d="M 12023.3,11663.4
11235.9,11663.4
11235.9,11190.9
12023.3,11190.9
Z" /> 
<path style="fill:#000000; fill-opacity:1.0; 
stroke:#000000; stroke-width:0; stroke-opacity:1; 
stroke-linecap:round; stroke-linejoin:round;fill-rule:evenodd;"
d="M 12023.3,10876
11235.9,10876
11235.9,10403.5
12023.3,10403.5
Z" /> 
<path style="fill:#000000; fill-opacity:1.0; 
stroke:#000000; stroke-width:0; stroke-opacity:1; 
stroke-linecap:round; stroke-linejoin:round;fill-rule:evenodd;"
d="M 12023.3,10088.6
11235.9,10088.6
11235.9,9616.14
12023.3,9616.14
Z" /> 
<path style="fill:#000000; fill-opacity:1.0; 
stroke:#000000; stroke-width:0; stroke-opacity:1; 
stroke-linecap:round; stroke-linejoin:round;fill-rule:evenodd;"
d="M 12574.5,8868.11
12574.5,8080.71
13047,8080.71
13047,8868.11
Z" /> 
<path style="fill:#000000; fill-opacity:1.0; 
stroke:#000000; stroke-width:0; stroke-opacity:1; 
stroke-linecap:round; stroke-linejoin:round;fill-rule:evenodd;"
d="M 13361.9,8868.11
13361.9,8080.71
13834.4,8080.71
13834.4,8868.11
Z" /> 
<path style="fill:#000000; fill-opacity:1.0; 
stroke:#000000; stroke-width:0; stroke-opacity:1; 
stroke-linecap:round; stroke-linejoin:round;fill-rule:evenodd;"
d="M 14149.3,8868.11
14149.3,8080.71
14621.8,8080.71
14621.8,8868.11
Z" /> 
<path style="fill:#000000; fill-opacity:1.0; 
stroke:#000000; stroke-width:0; stroke-opacity:1; 
stroke-linecap:round; stroke-linejoin:round;fill-rule:evenodd;"
d="M 14936.7,8868.11
14936.7,8080.71
15409.2,8080.71
15409.2,8868.11
Z" /> 
<path style="fill:#000000; fill-opacity:1.0; 
stroke:#000000; stroke-width:0; stroke-opacity:1; 
stroke-linecap:round; stroke-linejoin:round;fill-rule:evenodd;"
d="M 15724.1,8868.11
15724.1,8080.71
16196.6,8080.71
16196.6,8868.11
Z" /> 
<path style="fill:#000000; fill-opacity:1.0; 
stroke:#000000; stroke-width:0; stroke-opacity:1; 
stroke-linecap:round; stroke-linejoin:round;fill-rule:evenodd;"
d="M 16511.5,8868.11
16511.5,8080.71
16984,8080.71
16984,8868.11
Z" /> 
<path style="fill:#000000; fill-opacity:1.0; 
stroke:#000000; stroke-width:0; stroke-opacity:1; 
stroke-linecap:round; stroke-linejoin:round;fill-rule:evenodd;"
d="M 17298.9,8868.11
17298.9,8080.71
17771.4,8080.71
17771.4,8868.11
Z" /> 
<path style="fill:#000000; fill-opacity:1.0; 
stroke:#000000; stroke-width:0; stroke-opacity:1; 
stroke-linecap:round; stroke-linejoin:round;fill-rule:evenodd;"
d="M 18086.3,8868.11
18086.3,8080.71
18558.8,8080.71
18558.8,8868.11
Z" /> 
<path style="fill:#000000; fill-opacity:1.0; 
stroke:#000000; stroke-width:0; stroke-opacity:1; 
stroke-linecap:round; stroke-linejoin:round;fill-rule:evenodd;"
d="M 18873.7,8868.11
18873.7,8080.71
19346.2,8080.71
19346.2,8868.11
Z" /> 
<path style="fill:#000000; fill-opacity:1.0; 
stroke:#000000; stroke-width:0; stroke-opacity:1; 
stroke-linecap:round; stroke-linejoin:round;fill-rule:evenodd;"
d="M 19661.1,8868.11
19661.1,8080.71
20133.6,8080.71
20133.6,8868.11
Z" /> 
<path style="fill:#000000; fill-opacity:1.0; 
stroke:#000000; stroke-width:0; stroke-opacity:1; 
stroke-linecap:round; stroke-linejoin:round;fill-rule:evenodd;"
d="M 20448.5,8868.11
20448.5,8080.71
20921,8080.71
20921,8868.11
Z" /> 
<path style="fill:#000000; fill-opacity:1.0; 
stroke:#000000; stroke-width:0; stroke-opacity:1; 
stroke-linecap:round; stroke-linejoin:round;fill-rule:evenodd;"
d="M 21235.9,8868.11
21235.9,8080.71
21708.4,8080.71
21708.4,8868.11
Z" /> 
<path style="fill:#000000; fill-opacity:1.0; 
stroke:#000000; stroke-width:0; stroke-opacity:1; 
stroke-linecap:round; stroke-linejoin:round;fill-rule:evenodd;"
d="M 22023.3,8868.11
22023.3,8080.71
22495.8,8080.71
22495.8,8868.11
Z" /> 
<path style="fill:#000000; fill-opacity:1.0; 
stroke:#000000; stroke-width:0; stroke-opacity:1; 
stroke-linecap:round; stroke-linejoin:round;fill-rule:evenodd;"
d="M 22810.7,8868.11
22810.7,8080.71
23283.2,8080.71
23283.2,8868.11
Z" /> 
<path style="fill:#000000; fill-opacity:1.0; 
stroke:#000000; stroke-width:0; stroke-opacity:1; 
stroke-linecap:round; stroke-linejoin:round;fill-rule:evenodd;"
d="M 23598.1,8868.11
23598.1,8080.71
24070.6,8080.71
24070.6,8868.11
Z" /> 
<path style="fill:#000000; fill-opacity:1.0; 
stroke:#000000; stroke-width:0; stroke-opacity:1; 
stroke-linecap:round; stroke-linejoin:round;fill-rule:evenodd;"
d="M 24385.5,8868.11
24385.5,8080.71
24858,8080.71
24858,8868.11
Z" /> 
<path style="fill:#000000; fill-opacity:1.0; 
stroke:#000000; stroke-width:0; stroke-opacity:1; 
stroke-linecap:round; stroke-linejoin:round;fill-rule:evenodd;"
d="M 25172.9,8868.11
25172.9,8080.71
25645.4,8080.71
25645.4,8868.11
Z" /> 
<path style="fill:#000000; fill-opacity:1.0; 
stroke:#000000; stroke-width:0; stroke-opacity:1; 
stroke-linecap:round; stroke-linejoin:round;fill-rule:evenodd;"
d="M 25960.3,8868.11
25960.3,8080.71
26432.8,8080.71
26432.8,8868.11
Z" /> 
<path style="fill:#000000; fill-opacity:1.0; 
stroke:#000000; stroke-width:0; stroke-opacity:1; 
stroke-linecap:round; stroke-linejoin:round;fill-rule:evenodd;"
d="M 26747.8,8868.11
26747.8,8080.71
27220.2,8080.71
27220.2,8868.11
Z" /> 
</g>
<g >
</g>
<g style="fill:#000000; fill-opacity:1.0; 
stroke:#000000; stroke-width:0; stroke-opacity:1; 
stroke-linecap:round; stroke-linejoin:round;">
<path style="fill:#000000; fill-opacity:1.0; 
stroke:#000000; stroke-width:0; stroke-opacity:1; 
stroke-linecap:round; stroke-linejoin:round;fill-rule:evenodd;"
d="M 7003.66,9537.4
6216.25,9537.4
6216.25,8750
7003.66,8750
Z" /> 
<path style="fill:#000000; fill-opacity:1.0; 
stroke:#000000; stroke-width:0; stroke-opacity:1; 
stroke-linecap:round; stroke-linejoin:round;fill-rule:evenodd;"
d="M 7003.66,10954.7
6216.25,10954.7
6216.25,10167.3
7003.66,10167.3
Z" /> 
</g>
<g >
</g>
<g style="fill:#000000; fill-opacity:1.0; 
stroke:#000000; stroke-width:0; stroke-opacity:1; 
stroke-linecap:round; stroke-linejoin:round;">
<path style="fill:#000000; fill-opacity:1.0; 
stroke:#000000; stroke-width:0; stroke-opacity:1; 
stroke-linecap:round; stroke-linejoin:round;fill-rule:evenodd;"
d="M 7791.06,10757.9
8578.46,10757.9
8578.46,11545.3
7791.06,11545.3
Z" /> 
<path style="fill:#000000; fill-opacity:1.0; 
stroke:#000000; stroke-width:0; stroke-opacity:1; 
stroke-linecap:round; stroke-linejoin:round;fill-rule:evenodd;"
d="M 7791.06,9340.55
8578.46,9340.55
8578.46,10128
7791.06,10128
Z" /> 
</g>
<g >
</g>
<g style="fill:#000000; fill-opacity:1.0; 
stroke:#000000; stroke-width:0; stroke-opacity:1; 
stroke-linecap:round; stroke-linejoin:round;">
<path style="fill:#000000; fill-opacity:1.0; 
stroke:#000000; stroke-width:0; stroke-opacity:1; 
stroke-linecap:round; stroke-linejoin:round;fill-rule:evenodd;"
d="M 4641.45,10757.9
5428.85,10757.9
5428.85,11545.3
4641.45,11545.3
Z" /> 
<path style="fill:#000000; fill-opacity:1.0; 
stroke:#000000; stroke-width:0; stroke-opacity:1; 
stroke-linecap:round; stroke-linejoin:round;fill-rule:evenodd;"
d="M 4641.45,9340.55
5428.85,9340.55
5428.85,10128
4641.45,10128
Z" /> 
</g>
<g >
</g>
<g style="fill:#000000; fill-opacity:1.0; 
stroke:#000000; stroke-width:0; stroke-opacity:1; 
stroke-linecap:round; stroke-linejoin:round;">
<path style="fill:#000000; fill-opacity:1.0; 
stroke:#000000; stroke-width:0; stroke-opacity:1; 
stroke-linecap:round; stroke-linejoin:round;fill-rule:evenodd;"
d="M 18991.8,2805.12
19306.8,2805.12
19306.8,2962.6
18991.8,2962.6
Z" /> 
<path style="fill:#000000; fill-opacity:1.0; 
stroke:#000000; stroke-width:0; stroke-opacity:1; 
stroke-linecap:round; stroke-linejoin:round;fill-rule:evenodd;"
d="M 18991.8,4931.1
19306.8,4931.1
19306.8,5088.58
18991.8,5088.58
Z" /> 
<path style="fill:#000000; fill-opacity:1.0; 
stroke:#000000; stroke-width:0; stroke-opacity:1; 
stroke-linecap:round; stroke-linejoin:round;fill-rule:evenodd;"
d="M 19897.4,4931.1
20212.3,4931.1
20212.3,5088.58
19897.4,5088.58
Z" /> 
<path style="fill:#000000; fill-opacity:1.0; 
stroke:#000000; stroke-width:0; stroke-opacity:1; 
stroke-linecap:round; stroke-linejoin:round;fill-rule:evenodd;"
d="M 19897.4,2805.12
20212.3,2805.12
20212.3,2962.6
19897.4,2962.6
Z" /> 
<path style="fill:#000000; fill-opacity:1.0; 
stroke:#000000; stroke-width:0; stroke-opacity:1; 
stroke-linecap:round; stroke-linejoin:round;fill-rule:evenodd;"
d="M 18991.8,3041.34
19306.8,3041.34
19306.8,3120.08
18991.8,3120.08
Z" /> 
<path style="fill:#000000; fill-opacity:1.0; 
stroke:#000000; stroke-width:0; stroke-opacity:1; 
stroke-linecap:round; stroke-linejoin:round;fill-rule:evenodd;"
d="M 18991.8,3198.82
19306.8,3198.82
19306.8,3277.56
18991.8,3277.56
Z" /> 
<path style="fill:#000000; fill-opacity:1.0; 
stroke:#000000; stroke-width:0; stroke-opacity:1; 
stroke-linecap:round; stroke-linejoin:round;fill-rule:evenodd;"
d="M 18991.8,3356.3
19306.8,3356.3
19306.8,3435.04
18991.8,3435.04
Z" /> 
<path style="fill:#000000; fill-opacity:1.0; 
stroke:#000000; stroke-width:0; stroke-opacity:1; 
stroke-linecap:round; stroke-linejoin:round;fill-rule:evenodd;"
d="M 18991.8,3513.78
19306.8,3513.78
19306.8,3592.52
18991.8,3592.52
Z" /> 
<path style="fill:#000000; fill-opacity:1.0; 
stroke:#000000; stroke-width:0; stroke-opacity:1; 
stroke-linecap:round; stroke-linejoin:round;fill-rule:evenodd;"
d="M 18991.8,3671.26
19306.8,3671.26
19306.8,3750
18991.8,3750
Z" /> 
<path style="fill:#000000; fill-opacity:1.0; 
stroke:#000000; stroke-width:0; stroke-opacity:1; 
stroke-linecap:round; stroke-linejoin:round;fill-rule:evenodd;"
d="M 18991.8,3828.74
19306.8,3828.74
19306.8,3907.48
18991.8,3907.48
Z" /> 
<path style="fill:#000000; fill-opacity:1.0; 
stroke:#000000; stroke-width:0; stroke-opacity:1; 
stroke-linecap:round; stroke-linejoin:round;fill-rule:evenodd;"
d="M 18991.8,3986.22
19306.8,3986.22
19306.8,4064.96
18991.8,4064.96
Z" /> 
<path style="fill:#000000; fill-opacity:1.0; 
stroke:#000000; stroke-width:0; stroke-opacity:1; 
stroke-linecap:round; stroke-linejoin:round;fill-rule:evenodd;"
d="M 18991.8,4143.7
19306.8,4143.7
19306.8,4222.44
18991.8,4222.44
Z" /> 
<path style="fill:#000000; fill-opacity:1.0; 
stroke:#000000; stroke-width:0; stroke-opacity:1; 
stroke-linecap:round; stroke-linejoin:round;fill-rule:evenodd;"
d="M 18991.8,4301.18
19306.8,4301.18
19306.8,4379.92
18991.8,4379.92
Z" /> 
<path style="fill:#000000; fill-opacity:1.0; 
stroke:#000000; stroke-width:0; stroke-opacity:1; 
stroke-linecap:round; stroke-linejoin:round;fill-rule:evenodd;"
d="M 18991.8,4458.66
19306.8,4458.66
19306.8,4537.4
18991.8,4537.4
Z" /> 
<path style="fill:#000000; fill-opacity:1.0; 
stroke:#000000; stroke-width:0; stroke-opacity:1; 
stroke-linecap:round; stroke-linejoin:round;fill-rule:evenodd;"
d="M 18991.8,4616.14
19306.8,4616.14
19306.8,4694.88
18991.8,4694.88
Z" /> 
<path style="fill:#000000; fill-opacity:1.0; 
stroke:#000000; stroke-width:0; stroke-opacity:1; 
stroke-linecap:round; stroke-linejoin:round;fill-rule:evenodd;"
d="M 18991.8,4773.62
19306.8,4773.62
19306.8,4852.36
18991.8,4852.36
Z" /> 
<path style="fill:#000000; fill-opacity:1.0; 
stroke:#000000; stroke-width:0; stroke-opacity:1; 
stroke-linecap:round; stroke-linejoin:round;fill-rule:evenodd;"
d="M 19897.4,4773.62
20212.3,4773.62
20212.3,4852.36
19897.4,4852.36
Z" /> 
<path style="fill:#000000; fill-opacity:1.0; 
stroke:#000000; stroke-width:0; stroke-opacity:1; 
stroke-linecap:round; stroke-linejoin:round;fill-rule:evenodd;"
d="M 19897.4,4616.14
20212.3,4616.14
20212.3,4694.88
19897.4,4694.88
Z" /> 
<path style="fill:#000000; fill-opacity:1.0; 
stroke:#000000; stroke-width:0; stroke-opacity:1; 
stroke-linecap:round; stroke-linejoin:round;fill-rule:evenodd;"
d="M 19897.4,4458.66
20212.3,4458.66
20212.3,4537.4
19897.4,4537.4
Z" /> 
<path style="fill:#000000; fill-opacity:1.0; 
stroke:#000000; stroke-width:0; stroke-opacity:1; 
stroke-linecap:round; stroke-linejoin:round;fill-rule:evenodd;"
d="M 19897.4,4301.18
20212.3,4301.18
20212.3,4379.92
19897.4,4379.92
Z" /> 
<path style="fill:#000000; fill-opacity:1.0; 
stroke:#000000; stroke-width:0; stroke-opacity:1; 
stroke-linecap:round; stroke-linejoin:round;fill-rule:evenodd;"
d="M 19897.4,4143.7
20212.3,4143.7
20212.3,4222.44
19897.4,4222.44
Z" /> 
<path style="fill:#000000; fill-opacity:1.0; 
stroke:#000000; stroke-width:0; stroke-opacity:1; 
stroke-linecap:round; stroke-linejoin:round;fill-rule:evenodd;"
d="M 19897.4,3986.22
20212.3,3986.22
20212.3,4064.96
19897.4,4064.96
Z" /> 
<path style="fill:#000000; fill-opacity:1.0; 
stroke:#000000; stroke-width:0; stroke-opacity:1; 
stroke-linecap:round; stroke-linejoin:round;fill-rule:evenodd;"
d="M 19897.4,3828.74
20212.3,3828.74
20212.3,3907.48
19897.4,3907.48
Z" /> 
<path style="fill:#000000; fill-opacity:1.0; 
stroke:#000000; stroke-width:0; stroke-opacity:1; 
stroke-linecap:round; stroke-linejoin:round;fill-rule:evenodd;"
d="M 19897.4,3671.26
20212.3,3671.26
20212.3,3750
19897.4,3750
Z" /> 
<path style="fill:#000000; fill-opacity:1.0; 
stroke:#000000; stroke-width:0; stroke-opacity:1; 
stroke-linecap:round; stroke-linejoin:round;fill-rule:evenodd;"
d="M 19897.4,3513.78
20212.3,3513.78
20212.3,3592.52
19897.4,3592.52
Z" /> 
<path style="fill:#000000; fill-opacity:1.0; 
stroke:#000000; stroke-width:0; stroke-opacity:1; 
stroke-linecap:round; stroke-linejoin:round;fill-rule:evenodd;"
d="M 19897.4,3356.3
20212.3,3356.3
20212.3,3435.04
19897.4,3435.04
Z" /> 
<path style="fill:#000000; fill-opacity:1.0; 
stroke:#000000; stroke-width:0; stroke-opacity:1; 
stroke-linecap:round; stroke-linejoin:round;fill-rule:evenodd;"
d="M 19897.4,3198.82
20212.3,3198.82
20212.3,3277.56
19897.4,3277.56
Z" /> 
<path style="fill:#000000; fill-opacity:1.0; 
stroke:#000000; stroke-width:0; stroke-opacity:1; 
stroke-linecap:round; stroke-linejoin:round;fill-rule:evenodd;"
d="M 19897.4,3041.34
20212.3,3041.34
20212.3,3120.08
19897.4,3120.08
Z" /> 
</g>
<g >
</g>
<g style="fill:#000000; fill-opacity:1.0; 
stroke:#000000; stroke-width:0; stroke-opacity:1; 
stroke-linecap:round; stroke-linejoin:round;">
<path style="fill:#000000; fill-opacity:1.0; 
stroke:#000000; stroke-width:0; stroke-opacity:1; 
stroke-linecap:round; stroke-linejoin:round;fill-rule:evenodd;"
d="M 7190.47,15522.1
7200.02,15523.5
7209.39,15525.9
7218.49,15529.1
7227.22,15533.3
7235.5,15538.2
7243.26,15544
7250.42,15550.5
7256.9,15557.6
7262.66,15565.4
7267.62,15573.7
7271.75,15582.4
7275.01,15591.5
7277.35,15600.9
7278.77,15610.4
7279.25,15620.1
7279.25,15895.7
7278.77,15905.3
7277.35,15914.9
7275.01,15924.2
7271.75,15933.3
7267.62,15942.1
7262.66,15950.4
7256.9,15958.1
7250.42,15965.3
7243.26,15971.8
7235.5,15977.5
7227.22,15982.5
7218.49,15986.6
7209.39,15989.9
7200.02,15992.2
7190.47,15993.6
7180.82,15994.1
6826.49,15994.1
6816.84,15993.6
6807.29,15992.2
6797.92,15989.9
6788.82,15986.6
6780.09,15982.5
6771.81,15977.5
6764.05,15971.8
6756.89,15965.3
6750.41,15958.1
6744.65,15950.4
6739.69,15942.1
6735.56,15933.3
6732.3,15924.2
6729.96,15914.9
6728.54,15905.3
6728.06,15895.7
6728.06,15620.1
6728.54,15610.4
6729.96,15600.9
6732.3,15591.5
6735.56,15582.4
6739.69,15573.7
6744.65,15565.4
6750.41,15557.6
6756.89,15550.5
6764.05,15544
6771.81,15538.2
6780.09,15533.3
6788.82,15529.1
6797.92,15525.9
6807.29,15523.5
6816.84,15522.1
6826.49,15521.7
7180.82,15521.7
Z" /> 
<path style="fill:#000000; fill-opacity:1.0; 
stroke:#000000; stroke-width:0; stroke-opacity:1; 
stroke-linecap:round; stroke-linejoin:round;fill-rule:evenodd;"
d="M 7190.47,14734.7
7200.02,14736.1
7209.39,14738.5
7218.49,14741.7
7227.22,14745.9
7235.5,14750.8
7243.26,14756.6
7250.42,14763.1
7256.9,14770.2
7262.66,14778
7267.62,14786.3
7271.75,14795
7275.01,14804.1
7277.35,14813.5
7278.77,14823
7279.25,14832.7
7279.25,15108.3
7278.77,15117.9
7277.35,15127.5
7275.01,15136.8
7271.75,15145.9
7267.62,15154.7
7262.66,15163
7256.9,15170.7
7250.42,15177.9
7243.26,15184.4
7235.5,15190.1
7227.22,15195.1
7218.49,15199.2
7209.39,15202.5
7200.02,15204.8
7190.47,15206.2
7180.82,15206.7
6826.49,15206.7
6816.84,15206.2
6807.29,15204.8
6797.92,15202.5
6788.82,15199.2
6780.09,15195.1
6771.81,15190.1
6764.05,15184.4
6756.89,15177.9
6750.41,15170.7
6744.65,15163
6739.69,15154.7
6735.56,15145.9
6732.3,15136.8
6729.96,15127.5
6728.54,15117.9
6728.06,15108.3
6728.06,14832.7
6728.54,14823
6729.96,14813.5
6732.3,14804.1
6735.56,14795
6739.69,14786.3
6744.65,14778
6750.41,14770.2
6756.89,14763.1
6764.05,14756.6
6771.81,14750.8
6780.09,14745.9
6788.82,14741.7
6797.92,14738.5
6807.29,14736.1
6816.84,14734.7
6826.49,14734.3
7180.82,14734.3
Z" /> 
</g>
<g >
</g>
<g style="fill:#000000; fill-opacity:1.0; 
stroke:#000000; stroke-width:0; stroke-opacity:1; 
stroke-linecap:round; stroke-linejoin:round;">
<path style="fill:#000000; fill-opacity:1.0; 
stroke:#000000; stroke-width:0; stroke-opacity:1; 
stroke-linecap:round; stroke-linejoin:round;fill-rule:evenodd;"
d="M 9346.18,18946.9
9346.18,19261.8
8991.84,19261.8
8991.84,18946.9
Z" /> 
<path style="fill:#000000; fill-opacity:1.0; 
stroke:#000000; stroke-width:0; stroke-opacity:1; 
stroke-linecap:round; stroke-linejoin:round;fill-rule:evenodd;"
d="M 10133.6,18572.8
10133.6,18887.8
9779.25,18887.8
9779.25,18572.8
Z" /> 
<path style="fill:#000000; fill-opacity:1.0; 
stroke:#000000; stroke-width:0; stroke-opacity:1; 
stroke-linecap:round; stroke-linejoin:round;fill-rule:evenodd;"
d="M 10133.6,19320.9
10133.6,19635.8
9779.25,19635.8
9779.25,19320.9
Z" /> 
</g>
<g >
</g>
<g style="fill:#000000; fill-opacity:1.0; 
stroke:#000000; stroke-width:0; stroke-opacity:1; 
stroke-linecap:round; stroke-linejoin:round;">
<path style="fill:#000000; fill-opacity:1.0; 
stroke:#000000; stroke-width:0; stroke-opacity:1; 
stroke-linecap:round; stroke-linejoin:round;fill-rule:evenodd;"
d="M 4897.36,15482.3
5133.58,15482.3
5133.58,15639.8
4897.36,15639.8
Z" /> 
<path style="fill:#000000; fill-opacity:1.0; 
stroke:#000000; stroke-width:0; stroke-opacity:1; 
stroke-linecap:round; stroke-linejoin:round;fill-rule:evenodd;"
d="M 5724.13,15226.4
5960.35,15226.4
5960.35,15383.9
5724.13,15383.9
Z" /> 
<path style="fill:#000000; fill-opacity:1.0; 
stroke:#000000; stroke-width:0; stroke-opacity:1; 
stroke-linecap:round; stroke-linejoin:round;fill-rule:evenodd;"
d="M 5724.13,15738.2
5960.35,15738.2
5960.35,15895.7
5724.13,15895.7
Z" /> 
</g>
<g >
</g>
<g style="fill:#000000; fill-opacity:1.0; 
stroke:#000000; stroke-width:0; stroke-opacity:1; 
stroke-linecap:round; stroke-linejoin:round;">
<path style="fill:#000000; fill-opacity:1.0; 
stroke:#000000; stroke-width:0; stroke-opacity:1; 
stroke-linecap:round; stroke-linejoin:round;fill-rule:evenodd;"
d="M 5221.96,17520.2
5231.52,17521.6
5240.89,17523.9
5249.98,17527.2
5258.71,17531.3
5267,17536.3
5274.76,17542
5281.91,17548.5
5288.4,17555.7
5294.15,17563.4
5299.12,17571.7
5303.25,17580.4
5306.5,17589.5
5308.85,17598.9
5310.27,17608.5
5310.74,17618.1
5310.74,17874
5310.27,17883.7
5308.85,17893.2
5306.5,17902.6
5303.25,17911.7
5299.12,17920.4
5294.15,17928.7
5288.4,17936.5
5281.91,17943.6
5274.76,17950.1
5267,17955.9
5258.71,17960.8
5249.98,17964.9
5240.89,17968.2
5231.52,17970.5
5221.96,17972
5212.32,17972.4
4857.99,17972.4
4848.34,17972
4838.78,17970.5
4829.41,17968.2
4820.32,17964.9
4811.59,17960.8
4803.3,17955.9
4795.55,17950.1
4788.39,17943.6
4781.9,17936.5
4776.15,17928.7
4771.18,17920.4
4767.05,17911.7
4763.8,17902.6
4761.45,17893.2
4760.04,17883.7
4759.56,17874
4759.56,17618.1
4760.04,17608.5
4761.45,17598.9
4763.8,17589.5
4767.05,17580.4
4771.18,17571.7
4776.15,17563.4
4781.9,17555.7
4788.39,17548.5
4795.55,17542
4803.3,17536.3
4811.59,17531.3
4820.32,17527.2
4829.41,17523.9
4838.78,17521.6
4848.34,17520.2
4857.99,17519.7
5212.32,17519.7
Z" /> 
<path style="fill:#000000; fill-opacity:1.0; 
stroke:#000000; stroke-width:0; stroke-opacity:1; 
stroke-linecap:round; stroke-linejoin:round;fill-rule:evenodd;"
d="M 5221.96,16713.1
5231.52,16714.5
5240.89,16716.8
5249.98,16720.1
5258.71,16724.2
5267,16729.2
5274.76,16734.9
5281.91,16741.4
5288.4,16748.6
5294.15,16756.3
5299.12,16764.6
5303.25,16773.4
5306.5,16782.5
5308.85,16791.8
5310.27,16801.4
5310.74,16811
5310.74,17066.9
5310.27,17076.6
5308.85,17086.1
5306.5,17095.5
5303.25,17104.6
5299.12,17113.3
5294.15,17121.6
5288.4,17129.4
5281.91,17136.5
5274.76,17143
5267,17148.8
5258.71,17153.7
5249.98,17157.9
5240.89,17161.1
5231.52,17163.5
5221.96,17164.9
5212.32,17165.4
4857.99,17165.4
4848.34,17164.9
4838.78,17163.5
4829.41,17161.1
4820.32,17157.9
4811.59,17153.7
4803.3,17148.8
4795.55,17143
4788.39,17136.5
4781.9,17129.4
4776.15,17121.6
4771.18,17113.3
4767.05,17104.6
4763.8,17095.5
4761.45,17086.1
4760.04,17076.6
4759.56,17066.9
4759.56,16811
4760.04,16801.4
4761.45,16791.8
4763.8,16782.5
4767.05,16773.4
4771.18,16764.6
4776.15,16756.3
4781.9,16748.6
4788.39,16741.4
4795.55,16734.9
4803.3,16729.2
4811.59,16724.2
4820.32,16720.1
4829.41,16716.8
4838.78,16714.5
4848.34,16713.1
4857.99,16712.6
5212.32,16712.6
Z" /> 
</g>
<g >
</g>
<g >
</g>
<g style="fill:#000000; fill-opacity:1.0; 
stroke:#000000; stroke-width:0; stroke-opacity:1; 
stroke-linecap:round; stroke-linejoin:round;">
<path style="fill:#000000; fill-opacity:1.0; 
stroke:#000000; stroke-width:0; stroke-opacity:1; 
stroke-linecap:round; stroke-linejoin:round;fill-rule:evenodd;"
d="M 5330.43,8100.39
5645.39,8100.39
5645.39,8257.87
5330.43,8257.87
Z" /> 
<path style="fill:#000000; fill-opacity:1.0; 
stroke:#000000; stroke-width:0; stroke-opacity:1; 
stroke-linecap:round; stroke-linejoin:round;fill-rule:evenodd;"
d="M 5330.43,2785.43
5645.39,2785.43
5645.39,2942.91
5330.43,2942.91
Z" /> 
</g>
<g >
</g>
<g style="fill:#000000; fill-opacity:1.0; 
stroke:#000000; stroke-width:0; stroke-opacity:1; 
stroke-linecap:round; stroke-linejoin:round;">
<path style="fill:#000000; fill-opacity:1.0; 
stroke:#000000; stroke-width:0; stroke-opacity:1; 
stroke-linecap:round; stroke-linejoin:round;fill-rule:evenodd;"
d="M 23076.5,1751.97
22466.3,1751.97
22466.3,1358.27
23076.5,1358.27
Z" /> 
<path style="fill:#000000; fill-opacity:1.0; 
stroke:#000000; stroke-width:0; stroke-opacity:1; 
stroke-linecap:round; stroke-linejoin:round;fill-rule:evenodd;"
d="M 27269.4,1830.71
26678.9,1830.71
26678.9,1240.16
27269.4,1240.16
Z" /> 
<path style="fill:#000000; fill-opacity:1.0; 
stroke:#000000; stroke-width:0; stroke-opacity:1; 
stroke-linecap:round; stroke-linejoin:round;fill-rule:evenodd;"
d="M 27367.8,2637.8
26678.9,2637.8
26678.9,2362.21
27367.8,2362.21
Z" /> 
<path style="fill:#000000; fill-opacity:1.0; 
stroke:#000000; stroke-width:0; stroke-opacity:1; 
stroke-linecap:round; stroke-linejoin:round;fill-rule:evenodd;"
d="M 27367.8,3070.87
26678.9,3070.87
26678.9,2795.28
27367.8,2795.28
Z" /> 
<path style="fill:#000000; fill-opacity:1.0; 
stroke:#000000; stroke-width:0; stroke-opacity:1; 
stroke-linecap:round; stroke-linejoin:round;fill-rule:evenodd;"
d="M 27367.8,3503.94
26678.9,3503.94
26678.9,3228.35
27367.8,3228.35
Z" /> 
<path style="fill:#000000; fill-opacity:1.0; 
stroke:#000000; stroke-width:0; stroke-opacity:1; 
stroke-linecap:round; stroke-linejoin:round;fill-rule:evenodd;"
d="M 27367.8,3937.01
26678.9,3937.01
26678.9,3661.42
27367.8,3661.42
Z" /> 
<path style="fill:#000000; fill-opacity:1.0; 
stroke:#000000; stroke-width:0; stroke-opacity:1; 
stroke-linecap:round; stroke-linejoin:round;fill-rule:evenodd;"
d="M 27367.8,4370.08
26678.9,4370.08
26678.9,4094.49
27367.8,4094.49
Z" /> 
<path style="fill:#000000; fill-opacity:1.0; 
stroke:#000000; stroke-width:0; stroke-opacity:1; 
stroke-linecap:round; stroke-linejoin:round;fill-rule:evenodd;"
d="M 27367.8,4803.15
26678.9,4803.15
26678.9,4527.56
27367.8,4527.56
Z" /> 
<path style="fill:#000000; fill-opacity:1.0; 
stroke:#000000; stroke-width:0; stroke-opacity:1; 
stroke-linecap:round; stroke-linejoin:round;fill-rule:evenodd;"
d="M 27367.8,5236.22
26678.9,5236.22
26678.9,4960.63
27367.8,4960.63
Z" /> 
<path style="fill:#000000; fill-opacity:1.0; 
stroke:#000000; stroke-width:0; stroke-opacity:1; 
stroke-linecap:round; stroke-linejoin:round;fill-rule:evenodd;"
d="M 24001.7,1555.12
23450.5,1555.12
23450.5,1240.16
24001.7,1240.16
Z" /> 
<path style="fill:#000000; fill-opacity:1.0; 
stroke:#000000; stroke-width:0; stroke-opacity:1; 
stroke-linecap:round; stroke-linejoin:round;fill-rule:evenodd;"
d="M 23588.3,6259.84
23194.6,6259.84
23194.6,5688.98
23588.3,5688.98
Z" /> 
<path style="fill:#000000; fill-opacity:1.0; 
stroke:#000000; stroke-width:0; stroke-opacity:1; 
stroke-linecap:round; stroke-linejoin:round;fill-rule:evenodd;"
d="M 24277.3,6259.84
23686.7,6259.84
23686.7,5944.88
24277.3,5944.88
Z" /> 
<path style="fill:#000000; fill-opacity:1.0; 
stroke:#000000; stroke-width:0; stroke-opacity:1; 
stroke-linecap:round; stroke-linejoin:round;fill-rule:evenodd;"
d="M 27269.4,6259.84
26678.9,6259.84
26678.9,5748.03
27269.4,5748.03
Z" /> 
<path style="fill:#000000; fill-opacity:1.0; 
stroke:#000000; stroke-width:0; stroke-opacity:1; 
stroke-linecap:round; stroke-linejoin:round;fill-rule:evenodd;"
d="M 27367.8,5669.29
26678.9,5669.29
26678.9,5393.7
27367.8,5393.7
Z" /> 
</g>
<g >
</g>
<g style="fill:#000000; fill-opacity:1.0; 
stroke:#000000; stroke-width:0; stroke-opacity:1; 
stroke-linecap:round; stroke-linejoin:round;">
<path style="fill:#000000; fill-opacity:1.0; 
stroke:#000000; stroke-width:0; stroke-opacity:1; 
stroke-linecap:round; stroke-linejoin:round;fill-rule:evenodd;"
d="M 8735.74,3465.04
8745.3,3466.46
8754.67,3468.81
8763.76,3472.06
8772.49,3476.19
8780.78,3481.16
8788.54,3486.91
8795.69,3493.4
8802.18,3500.55
8807.93,3508.31
8812.9,3516.6
8817.03,3525.33
8820.28,3534.42
8822.63,3543.79
8824.05,3553.35
8824.52,3562.99
8824.52,3937.01
8824.05,3946.66
8822.63,3956.21
8820.28,3965.58
8817.03,3974.67
8812.9,3983.41
8807.93,3991.69
8802.18,3999.45
8795.69,4006.61
8788.54,4013.09
8780.78,4018.85
8772.49,4023.81
8763.76,4027.94
8754.67,4031.2
8745.3,4033.54
8735.74,4034.96
8726.1,4035.43
8460.35,4035.43
8450.7,4034.96
8441.15,4033.54
8431.78,4031.2
8422.68,4027.94
8413.95,4023.81
8405.67,4018.85
8397.91,4013.09
8390.75,4006.61
8384.26,3999.45
8378.51,3991.69
8373.55,3983.41
8369.42,3974.67
8366.16,3965.58
8363.81,3956.21
8362.4,3946.66
8361.92,3937.01
8361.92,3562.99
8362.4,3553.35
8363.81,3543.79
8366.16,3534.42
8369.42,3525.33
8373.55,3516.6
8378.51,3508.31
8384.26,3500.55
8390.75,3493.4
8397.91,3486.91
8405.67,3481.16
8413.95,3476.19
8422.68,3472.06
8431.78,3468.81
8441.15,3466.46
8450.7,3465.04
8460.35,3464.57
8726.1,3464.57
Z" /> 
<path style="fill:#000000; fill-opacity:1.0; 
stroke:#000000; stroke-width:0; stroke-opacity:1; 
stroke-linecap:round; stroke-linejoin:round;fill-rule:evenodd;"
d="M 7918.81,3465.04
7928.37,3466.46
7937.74,3468.81
7946.83,3472.06
7955.56,3476.19
7963.85,3481.16
7971.61,3486.91
7978.76,3493.4
7985.25,3500.55
7991,3508.31
7995.97,3516.6
8000.1,3525.33
8003.35,3534.42
8005.7,3543.79
8007.12,3553.35
8007.59,3562.99
8007.59,3937.01
8007.12,3946.66
8005.7,3956.21
8003.35,3965.58
8000.1,3974.67
7995.97,3983.41
7991,3991.69
7985.25,3999.45
7978.76,4006.61
7971.61,4013.09
7963.85,4018.85
7955.56,4023.81
7946.83,4027.94
7937.74,4031.2
7928.37,4033.54
7918.81,4034.96
7909.17,4035.43
7643.42,4035.43
7633.77,4034.96
7624.22,4033.54
7614.85,4031.2
7605.75,4027.94
7597.02,4023.81
7588.74,4018.85
7580.98,4013.09
7573.82,4006.61
7567.34,3999.45
7561.58,3991.69
7556.62,3983.41
7552.49,3974.67
7549.23,3965.58
7546.89,3956.21
7545.47,3946.66
7544.99,3937.01
7544.99,3562.99
7545.47,3553.35
7546.89,3543.79
7549.23,3534.42
7552.49,3525.33
7556.62,3516.6
7561.58,3508.31
7567.34,3500.55
7573.82,3493.4
7580.98,3486.91
7588.74,3481.16
7597.02,3476.19
7605.75,3472.06
7614.85,3468.81
7624.22,3466.46
7633.77,3465.04
7643.42,3464.57
7909.17,3464.57
Z" /> 
</g>
<g >
</g>
<g style="fill:#000000; fill-opacity:1.0; 
stroke:#000000; stroke-width:0; stroke-opacity:1; 
stroke-linecap:round; stroke-linejoin:round;">
<path style="fill:#000000; fill-opacity:1.0; 
stroke:#000000; stroke-width:0; stroke-opacity:1; 
stroke-linecap:round; stroke-linejoin:round;fill-rule:evenodd;"
d="M 8735.74,5630.4
8745.3,5631.81
8754.67,5634.16
8763.76,5637.41
8772.49,5641.54
8780.78,5646.51
8788.54,5652.26
8795.69,5658.75
8802.18,5665.91
8807.93,5673.66
8812.9,5681.95
8817.03,5690.68
8820.28,5699.78
8822.63,5709.14
8824.05,5718.7
8824.52,5728.35
8824.52,6102.36
8824.05,6112.01
8822.63,6121.56
8820.28,6130.93
8817.03,6140.03
8812.9,6148.76
8807.93,6157.04
8802.18,6164.8
8795.69,6171.96
8788.54,6178.45
8780.78,6184.2
8772.49,6189.17
8763.76,6193.3
8754.67,6196.55
8745.3,6198.9
8735.74,6200.31
8726.1,6200.79
8460.35,6200.79
8450.7,6200.31
8441.15,6198.9
8431.78,6196.55
8422.68,6193.3
8413.95,6189.17
8405.67,6184.2
8397.91,6178.45
8390.75,6171.96
8384.26,6164.8
8378.51,6157.04
8373.55,6148.76
8369.42,6140.03
8366.16,6130.93
8363.81,6121.56
8362.4,6112.01
8361.92,6102.36
8361.92,5728.35
8362.4,5718.7
8363.81,5709.14
8366.16,5699.78
8369.42,5690.68
8373.55,5681.95
8378.51,5673.66
8384.26,5665.91
8390.75,5658.75
8397.91,5652.26
8405.67,5646.51
8413.95,5641.54
8422.68,5637.41
8431.78,5634.16
8441.15,5631.81
8450.7,5630.4
8460.35,5629.92
8726.1,5629.92
Z" /> 
<path style="fill:#000000; fill-opacity:1.0; 
stroke:#000000; stroke-width:0; stroke-opacity:1; 
stroke-linecap:round; stroke-linejoin:round;fill-rule:evenodd;"
d="M 7918.81,5630.4
7928.37,5631.81
7937.74,5634.16
7946.83,5637.41
7955.56,5641.54
7963.85,5646.51
7971.61,5652.26
7978.76,5658.75
7985.25,5665.91
7991,5673.66
7995.97,5681.95
8000.1,5690.68
8003.35,5699.78
8005.7,5709.14
8007.12,5718.7
8007.59,5728.35
8007.59,6102.36
8007.12,6112.01
8005.7,6121.56
8003.35,6130.93
8000.1,6140.03
7995.97,6148.76
7991,6157.04
7985.25,6164.8
7978.76,6171.96
7971.61,6178.45
7963.85,6184.2
7955.56,6189.17
7946.83,6193.3
7937.74,6196.55
7928.37,6198.9
7918.81,6200.31
7909.17,6200.79
7643.42,6200.79
7633.77,6200.31
7624.22,6198.9
7614.85,6196.55
7605.75,6193.3
7597.02,6189.17
7588.74,6184.2
7580.98,6178.45
7573.82,6171.96
7567.34,6164.8
7561.58,6157.04
7556.62,6148.76
7552.49,6140.03
7549.23,6130.93
7546.89,6121.56
7545.47,6112.01
7544.99,6102.36
7544.99,5728.35
7545.47,5718.7
7546.89,5709.14
7549.23,5699.78
7552.49,5690.68
7556.62,5681.95
7561.58,5673.66
7567.34,5665.91
7573.82,5658.75
7580.98,5652.26
7588.74,5646.51
7597.02,5641.54
7605.75,5637.41
7614.85,5634.16
7624.22,5631.81
7633.77,5630.4
7643.42,5629.92
7909.17,5629.92
Z" /> 
</g>
<g >
</g>
<g style="fill:#000000; fill-opacity:1.0; 
stroke:#000000; stroke-width:0; stroke-opacity:1; 
stroke-linecap:round; stroke-linejoin:round;">
<path style="fill:#000000; fill-opacity:1.0; 
stroke:#000000; stroke-width:0; stroke-opacity:1; 
stroke-linecap:round; stroke-linejoin:round;fill-rule:evenodd;"
d="M 6412.91,12982.8
6422.46,12984.2
6431.83,12986.5
6440.93,12989.8
6449.66,12993.9
6457.94,12998.9
6465.7,13004.6
6472.86,13011.1
6479.35,13018.3
6485.1,13026
6490.06,13034.3
6494.19,13043
6497.45,13052.1
6499.8,13061.5
6501.21,13071.1
6501.69,13080.7
6501.69,13346.5
6501.21,13356.1
6499.8,13365.7
6497.45,13375
6494.19,13384.1
6490.06,13392.9
6485.1,13401.1
6479.35,13408.9
6472.86,13416.1
6465.7,13422.5
6457.94,13428.3
6449.66,13433.3
6440.93,13437.4
6431.83,13440.6
6422.46,13443
6412.91,13444.4
6403.26,13444.9
6029.25,13444.9
6019.6,13444.4
6010.04,13443
6000.67,13440.6
5991.58,13437.4
5982.85,13433.3
5974.56,13428.3
5966.81,13422.5
5959.65,13416.1
5953.16,13408.9
5947.41,13401.1
5942.44,13392.9
5938.31,13384.1
5935.06,13375
5932.71,13365.7
5931.29,13356.1
5930.82,13346.5
5930.82,13080.7
5931.29,13071.1
5932.71,13061.5
5935.06,13052.1
5938.31,13043
5942.44,13034.3
5947.41,13026
5953.16,13018.3
5959.65,13011.1
5966.81,13004.6
5974.56,12998.9
5982.85,12993.9
5991.58,12989.8
6000.67,12986.5
6010.04,12984.2
6019.6,12982.8
6029.25,12982.3
6403.26,12982.3
Z" /> 
<path style="fill:#000000; fill-opacity:1.0; 
stroke:#000000; stroke-width:0; stroke-opacity:1; 
stroke-linecap:round; stroke-linejoin:round;fill-rule:evenodd;"
d="M 6412.91,12165.8
6422.46,12167.2
6431.83,12169.6
6440.93,12172.8
6449.66,12177
6457.94,12181.9
6465.7,12187.7
6472.86,12194.2
6479.35,12201.3
6485.1,12209.1
6490.06,12217.4
6494.19,12226.1
6497.45,12235.2
6499.8,12244.6
6501.21,12254.1
6501.69,12263.8
6501.69,12529.5
6501.21,12539.2
6499.8,12548.7
6497.45,12558.1
6494.19,12567.2
6490.06,12575.9
6485.1,12584.2
6479.35,12592
6472.86,12599.1
6465.7,12605.6
6457.94,12611.4
6449.66,12616.3
6440.93,12620.5
6431.83,12623.7
6422.46,12626.1
6412.91,12627.5
6403.26,12628
6029.25,12628
6019.6,12627.5
6010.04,12626.1
6000.67,12623.7
5991.58,12620.5
5982.85,12616.3
5974.56,12611.4
5966.81,12605.6
5959.65,12599.1
5953.16,12592
5947.41,12584.2
5942.44,12575.9
5938.31,12567.2
5935.06,12558.1
5932.71,12548.7
5931.29,12539.2
5930.82,12529.5
5930.82,12263.8
5931.29,12254.1
5932.71,12244.6
5935.06,12235.2
5938.31,12226.1
5942.44,12217.4
5947.41,12209.1
5953.16,12201.3
5959.65,12194.2
5966.81,12187.7
5974.56,12181.9
5982.85,12177
5991.58,12172.8
6000.67,12169.6
6010.04,12167.2
6019.6,12165.8
6029.25,12165.4
6403.26,12165.4
Z" /> 
</g>
<g >
</g>
<g style="fill:#000000; fill-opacity:1.0; 
stroke:#000000; stroke-width:0; stroke-opacity:1; 
stroke-linecap:round; stroke-linejoin:round;">
<path style="fill:#000000; fill-opacity:1.0; 
stroke:#000000; stroke-width:0; stroke-opacity:1; 
stroke-linecap:round; stroke-linejoin:round;fill-rule:evenodd;"
d="M 8735.74,1102.84
8745.3,1104.25
8754.67,1106.6
8763.76,1109.85
8772.49,1113.98
8780.78,1118.95
8788.54,1124.7
8795.69,1131.19
8802.18,1138.35
8807.93,1146.11
8812.9,1154.39
8817.03,1163.12
8820.28,1172.22
8822.63,1181.59
8824.05,1191.14
8824.52,1200.79
8824.52,1574.8
8824.05,1584.45
8822.63,1594.01
8820.28,1603.37
8817.03,1612.47
8812.9,1621.2
8807.93,1629.49
8802.18,1637.24
8795.69,1644.4
8788.54,1650.89
8780.78,1656.64
8772.49,1661.61
8763.76,1665.74
8754.67,1668.99
8745.3,1671.34
8735.74,1672.75
8726.1,1673.23
8460.35,1673.23
8450.7,1672.75
8441.15,1671.34
8431.78,1668.99
8422.68,1665.74
8413.95,1661.61
8405.67,1656.64
8397.91,1650.89
8390.75,1644.4
8384.26,1637.24
8378.51,1629.49
8373.55,1621.2
8369.42,1612.47
8366.16,1603.37
8363.81,1594.01
8362.4,1584.45
8361.92,1574.8
8361.92,1200.79
8362.4,1191.14
8363.81,1181.59
8366.16,1172.22
8369.42,1163.12
8373.55,1154.39
8378.51,1146.11
8384.26,1138.35
8390.75,1131.19
8397.91,1124.7
8405.67,1118.95
8413.95,1113.98
8422.68,1109.85
8431.78,1106.6
8441.15,1104.25
8450.7,1102.84
8460.35,1102.36
8726.1,1102.36
Z" /> 
<path style="fill:#000000; fill-opacity:1.0; 
stroke:#000000; stroke-width:0; stroke-opacity:1; 
stroke-linecap:round; stroke-linejoin:round;fill-rule:evenodd;"
d="M 7918.81,1102.84
7928.37,1104.25
7937.74,1106.6
7946.83,1109.85
7955.56,1113.98
7963.85,1118.95
7971.61,1124.7
7978.76,1131.19
7985.25,1138.35
7991,1146.11
7995.97,1154.39
8000.1,1163.12
8003.35,1172.22
8005.7,1181.59
8007.12,1191.14
8007.59,1200.79
8007.59,1574.8
8007.12,1584.45
8005.7,1594.01
8003.35,1603.37
8000.1,1612.47
7995.97,1621.2
7991,1629.49
7985.25,1637.24
7978.76,1644.4
7971.61,1650.89
7963.85,1656.64
7955.56,1661.61
7946.83,1665.74
7937.74,1668.99
7928.37,1671.34
7918.81,1672.75
7909.17,1673.23
7643.42,1673.23
7633.77,1672.75
7624.22,1671.34
7614.85,1668.99
7605.75,1665.74
7597.02,1661.61
7588.74,1656.64
7580.98,1650.89
7573.82,1644.4
7567.34,1637.24
7561.58,1629.49
7556.62,1621.2
7552.49,1612.47
7549.23,1603.37
7546.89,1594.01
7545.47,1584.45
7544.99,1574.8
7544.99,1200.79
7545.47,1191.14
7546.89,1181.59
7549.23,1172.22
7552.49,1163.12
7556.62,1154.39
7561.58,1146.11
7567.34,1138.35
7573.82,1131.19
7580.98,1124.7
7588.74,1118.95
7597.02,1113.98
7605.75,1109.85
7614.85,1106.6
7624.22,1104.25
7633.77,1102.84
7643.42,1102.36
7909.17,1102.36
Z" /> 
</g>
<g >
</g>
<g style="fill:#000000; fill-opacity:1.0; 
stroke:#000000; stroke-width:0; stroke-opacity:1; 
stroke-linecap:round; stroke-linejoin:round;">
<path style="fill:#000000; fill-opacity:1.0; 
stroke:#000000; stroke-width:0; stroke-opacity:1; 
stroke-linecap:round; stroke-linejoin:round;fill-rule:evenodd;"
d="M 7918.81,2283.94
7928.37,2285.36
7937.74,2287.7
7946.83,2290.96
7955.56,2295.09
7963.85,2300.05
7971.61,2305.81
7978.76,2312.29
7985.25,2319.45
7991,2327.21
7995.97,2335.49
8000.1,2344.22
8003.35,2353.32
8005.7,2362.69
8007.12,2372.24
8007.59,2381.89
8007.59,2755.91
8007.12,2765.55
8005.7,2775.11
8003.35,2784.48
8000.1,2793.57
7995.97,2802.3
7991,2810.59
7985.25,2818.35
7978.76,2825.5
7971.61,2831.99
7963.85,2837.74
7955.56,2842.71
7946.83,2846.84
7937.74,2850.09
7928.37,2852.44
7918.81,2853.86
7909.17,2854.33
7643.42,2854.33
7633.77,2853.86
7624.22,2852.44
7614.85,2850.09
7605.75,2846.84
7597.02,2842.71
7588.74,2837.74
7580.98,2831.99
7573.82,2825.5
7567.34,2818.35
7561.58,2810.59
7556.62,2802.3
7552.49,2793.57
7549.23,2784.48
7546.89,2775.11
7545.47,2765.55
7544.99,2755.91
7544.99,2381.89
7545.47,2372.24
7546.89,2362.69
7549.23,2353.32
7552.49,2344.22
7556.62,2335.49
7561.58,2327.21
7567.34,2319.45
7573.82,2312.29
7580.98,2305.81
7588.74,2300.05
7597.02,2295.09
7605.75,2290.96
7614.85,2287.7
7624.22,2285.36
7633.77,2283.94
7643.42,2283.46
7909.17,2283.46
Z" /> 
<path style="fill:#000000; fill-opacity:1.0; 
stroke:#000000; stroke-width:0; stroke-opacity:1; 
stroke-linecap:round; stroke-linejoin:round;fill-rule:evenodd;"
d="M 8735.74,2283.94
8745.3,2285.36
8754.67,2287.7
8763.76,2290.96
8772.49,2295.09
8780.78,2300.05
8788.54,2305.81
8795.69,2312.29
8802.18,2319.45
8807.93,2327.21
8812.9,2335.49
8817.03,2344.22
8820.28,2353.32
8822.63,2362.69
8824.05,2372.24
8824.52,2381.89
8824.52,2755.91
8824.05,2765.55
8822.63,2775.11
8820.28,2784.48
8817.03,2793.57
8812.9,2802.3
8807.93,2810.59
8802.18,2818.35
8795.69,2825.5
8788.54,2831.99
8780.78,2837.74
8772.49,2842.71
8763.76,2846.84
8754.67,2850.09
8745.3,2852.44
8735.74,2853.86
8726.1,2854.33
8460.35,2854.33
8450.7,2853.86
8441.15,2852.44
8431.78,2850.09
8422.68,2846.84
8413.95,2842.71
8405.67,2837.74
8397.91,2831.99
8390.75,2825.5
8384.26,2818.35
8378.51,2810.59
8373.55,2802.3
8369.42,2793.57
8366.16,2784.48
8363.81,2775.11
8362.4,2765.55
8361.92,2755.91
8361.92,2381.89
8362.4,2372.24
8363.81,2362.69
8366.16,2353.32
8369.42,2344.22
8373.55,2335.49
8378.51,2327.21
8384.26,2319.45
8390.75,2312.29
8397.91,2305.81
8405.67,2300.05
8413.95,2295.09
8422.68,2290.96
8431.78,2287.7
8441.15,2285.36
8450.7,2283.94
8460.35,2283.46
8726.1,2283.46
Z" /> 
</g>
<g >
</g>
<g style="fill:#000000; fill-opacity:1.0; 
stroke:#000000; stroke-width:0; stroke-opacity:1; 
stroke-linecap:round; stroke-linejoin:round;">
<path style="fill:#000000; fill-opacity:1.0; 
stroke:#000000; stroke-width:0; stroke-opacity:1; 
stroke-linecap:round; stroke-linejoin:round;fill-rule:evenodd;"
d="M 8735.74,4449.29
8745.3,4450.71
8754.67,4453.06
8763.76,4456.31
8772.49,4460.44
8780.78,4465.41
8788.54,4471.16
8795.69,4477.65
8802.18,4484.8
8807.93,4492.56
8812.9,4500.85
8817.03,4509.58
8820.28,4518.67
8822.63,4528.04
8824.05,4537.6
8824.52,4547.24
8824.52,4921.26
8824.05,4930.91
8822.63,4940.46
8820.28,4949.83
8817.03,4958.93
8812.9,4967.66
8807.93,4975.94
8802.18,4983.7
8795.69,4990.86
8788.54,4997.34
8780.78,5003.1
8772.49,5008.06
8763.76,5012.19
8754.67,5015.45
8745.3,5017.79
8735.74,5019.21
8726.1,5019.69
8460.35,5019.69
8450.7,5019.21
8441.15,5017.79
8431.78,5015.45
8422.68,5012.19
8413.95,5008.06
8405.67,5003.1
8397.91,4997.34
8390.75,4990.86
8384.26,4983.7
8378.51,4975.94
8373.55,4967.66
8369.42,4958.93
8366.16,4949.83
8363.81,4940.46
8362.4,4930.91
8361.92,4921.26
8361.92,4547.24
8362.4,4537.6
8363.81,4528.04
8366.16,4518.67
8369.42,4509.58
8373.55,4500.85
8378.51,4492.56
8384.26,4484.8
8390.75,4477.65
8397.91,4471.16
8405.67,4465.41
8413.95,4460.44
8422.68,4456.31
8431.78,4453.06
8441.15,4450.71
8450.7,4449.29
8460.35,4448.82
8726.1,4448.82
Z" /> 
<path style="fill:#000000; fill-opacity:1.0; 
stroke:#000000; stroke-width:0; stroke-opacity:1; 
stroke-linecap:round; stroke-linejoin:round;fill-rule:evenodd;"
d="M 7918.81,4449.29
7928.37,4450.71
7937.74,4453.06
7946.83,4456.31
7955.56,4460.44
7963.85,4465.41
7971.61,4471.16
7978.76,4477.65
7985.25,4484.8
7991,4492.56
7995.97,4500.85
8000.1,4509.58
8003.35,4518.67
8005.7,4528.04
8007.12,4537.6
8007.59,4547.24
8007.59,4921.26
8007.12,4930.91
8005.7,4940.46
8003.35,4949.83
8000.1,4958.93
7995.97,4967.66
7991,4975.94
7985.25,4983.7
7978.76,4990.86
7971.61,4997.34
7963.85,5003.1
7955.56,5008.06
7946.83,5012.19
7937.74,5015.45
7928.37,5017.79
7918.81,5019.21
7909.17,5019.69
7643.42,5019.69
7633.77,5019.21
7624.22,5017.79
7614.85,5015.45
7605.75,5012.19
7597.02,5008.06
7588.74,5003.1
7580.98,4997.34
7573.82,4990.86
7567.34,4983.7
7561.58,4975.94
7556.62,4967.66
7552.49,4958.93
7549.23,4949.83
7546.89,4940.46
7545.47,4930.91
7544.99,4921.26
7544.99,4547.24
7545.47,4537.6
7546.89,4528.04
7549.23,4518.67
7552.49,4509.58
7556.62,4500.85
7561.58,4492.56
7567.34,4484.8
7573.82,4477.65
7580.98,4471.16
7588.74,4465.41
7597.02,4460.44
7605.75,4456.31
7614.85,4453.06
7624.22,4450.71
7633.77,4449.29
7643.42,4448.82
7909.17,4448.82
Z" /> 
</g>
<g >
</g>
<g style="fill:#000000; fill-opacity:1.0; 
stroke:#000000; stroke-width:0; stroke-opacity:1; 
stroke-linecap:round; stroke-linejoin:round;">
<path style="fill:#000000; fill-opacity:1.0; 
stroke:#000000; stroke-width:0; stroke-opacity:1; 
stroke-linecap:round; stroke-linejoin:round;fill-rule:evenodd;"
d="M 10349.9,4321.34
10359.5,4322.76
10368.8,4325.1
10377.9,4328.36
10386.7,4332.49
10395,4337.45
10402.7,4343.21
10409.9,4349.69
10416.4,4356.85
10422.1,4364.61
10427.1,4372.89
10431.2,4381.63
10434.5,4390.72
10436.8,4400.09
10438.2,4409.64
10438.7,4419.29
10438.7,4685.04
10438.2,4694.69
10436.8,4704.24
10434.5,4713.61
10431.2,4722.71
10427.1,4731.44
10422.1,4739.72
10416.4,4747.48
10409.9,4754.64
10402.7,4761.12
10395,4766.88
10386.7,4771.84
10377.9,4775.97
10368.8,4779.23
10359.5,4781.57
10349.9,4782.99
10340.3,4783.46
9966.25,4783.46
9956.61,4782.99
9947.05,4781.57
9937.68,4779.23
9928.59,4775.97
9919.86,4771.84
9911.57,4766.88
9903.81,4761.12
9896.66,4754.64
9890.17,4747.48
9884.42,4739.72
9879.45,4731.44
9875.32,4722.71
9872.07,4713.61
9869.72,4704.24
9868.3,4694.69
9867.83,4685.04
9867.83,4419.29
9868.3,4409.64
9869.72,4400.09
9872.07,4390.72
9875.32,4381.63
9879.45,4372.89
9884.42,4364.61
9890.17,4356.85
9896.66,4349.69
9903.81,4343.21
9911.57,4337.45
9919.86,4332.49
9928.59,4328.36
9937.68,4325.1
9947.05,4322.76
9956.61,4321.34
9966.25,4320.87
10340.3,4320.87
Z" /> 
<path style="fill:#000000; fill-opacity:1.0; 
stroke:#000000; stroke-width:0; stroke-opacity:1; 
stroke-linecap:round; stroke-linejoin:round;fill-rule:evenodd;"
d="M 10349.9,3504.41
10359.5,3505.83
10368.8,3508.18
10377.9,3511.43
10386.7,3515.56
10395,3520.53
10402.7,3526.28
10409.9,3532.77
10416.4,3539.92
10422.1,3547.68
10427.1,3555.97
10431.2,3564.7
10434.5,3573.79
10436.8,3583.16
10438.2,3592.72
10438.7,3602.36
10438.7,3868.11
10438.2,3877.76
10436.8,3887.31
10434.5,3896.68
10431.2,3905.78
10427.1,3914.51
10422.1,3922.79
10416.4,3930.55
10409.9,3937.71
10402.7,3944.19
10395,3949.95
10386.7,3954.91
10377.9,3959.04
10368.8,3962.3
10359.5,3964.64
10349.9,3966.06
10340.3,3966.54
9966.25,3966.54
9956.61,3966.06
9947.05,3964.64
9937.68,3962.3
9928.59,3959.04
9919.86,3954.91
9911.57,3949.95
9903.81,3944.19
9896.66,3937.71
9890.17,3930.55
9884.42,3922.79
9879.45,3914.51
9875.32,3905.78
9872.07,3896.68
9869.72,3887.31
9868.3,3877.76
9867.83,3868.11
9867.83,3602.36
9868.3,3592.72
9869.72,3583.16
9872.07,3573.79
9875.32,3564.7
9879.45,3555.97
9884.42,3547.68
9890.17,3539.92
9896.66,3532.77
9903.81,3526.28
9911.57,3520.53
9919.86,3515.56
9928.59,3511.43
9937.68,3508.18
9947.05,3505.83
9956.61,3504.41
9966.25,3503.94
10340.3,3503.94
Z" /> 
</g>
<g >
</g>
<g style="fill:#000000; fill-opacity:1.0; 
stroke:#000000; stroke-width:0; stroke-opacity:1; 
stroke-linecap:round; stroke-linejoin:round;">
<path style="fill:#000000; fill-opacity:1.0; 
stroke:#000000; stroke-width:0; stroke-opacity:1; 
stroke-linecap:round; stroke-linejoin:round;fill-rule:evenodd;"
d="M 5231.81,12982.8
5241.36,12984.2
5250.73,12986.5
5259.83,12989.8
5268.56,12993.9
5276.84,12998.9
5284.6,13004.6
5291.76,13011.1
5298.24,13018.3
5304,13026
5308.96,13034.3
5313.09,13043
5316.35,13052.1
5318.69,13061.5
5320.11,13071.1
5320.58,13080.7
5320.58,13346.5
5320.11,13356.1
5318.69,13365.7
5316.35,13375
5313.09,13384.1
5308.96,13392.9
5304,13401.1
5298.24,13408.9
5291.76,13416.1
5284.6,13422.5
5276.84,13428.3
5268.56,13433.3
5259.83,13437.4
5250.73,13440.6
5241.36,13443
5231.81,13444.4
5222.16,13444.9
4848.14,13444.9
4838.5,13444.4
4828.94,13443
4819.57,13440.6
4810.48,13437.4
4801.75,13433.3
4793.46,13428.3
4785.7,13422.5
4778.55,13416.1
4772.06,13408.9
4766.31,13401.1
4761.34,13392.9
4757.21,13384.1
4753.96,13375
4751.61,13365.7
4750.19,13356.1
4749.72,13346.5
4749.72,13080.7
4750.19,13071.1
4751.61,13061.5
4753.96,13052.1
4757.21,13043
4761.34,13034.3
4766.31,13026
4772.06,13018.3
4778.55,13011.1
4785.7,13004.6
4793.46,12998.9
4801.75,12993.9
4810.48,12989.8
4819.57,12986.5
4828.94,12984.2
4838.5,12982.8
4848.14,12982.3
5222.16,12982.3
Z" /> 
<path style="fill:#000000; fill-opacity:1.0; 
stroke:#000000; stroke-width:0; stroke-opacity:1; 
stroke-linecap:round; stroke-linejoin:round;fill-rule:evenodd;"
d="M 5231.81,12165.8
5241.36,12167.2
5250.73,12169.6
5259.83,12172.8
5268.56,12177
5276.84,12181.9
5284.6,12187.7
5291.76,12194.2
5298.24,12201.3
5304,12209.1
5308.96,12217.4
5313.09,12226.1
5316.35,12235.2
5318.69,12244.6
5320.11,12254.1
5320.58,12263.8
5320.58,12529.5
5320.11,12539.2
5318.69,12548.7
5316.35,12558.1
5313.09,12567.2
5308.96,12575.9
5304,12584.2
5298.24,12592
5291.76,12599.1
5284.6,12605.6
5276.84,12611.4
5268.56,12616.3
5259.83,12620.5
5250.73,12623.7
5241.36,12626.1
5231.81,12627.5
5222.16,12628
4848.14,12628
4838.5,12627.5
4828.94,12626.1
4819.57,12623.7
4810.48,12620.5
4801.75,12616.3
4793.46,12611.4
4785.7,12605.6
4778.55,12599.1
4772.06,12592
4766.31,12584.2
4761.34,12575.9
4757.21,12567.2
4753.96,12558.1
4751.61,12548.7
4750.19,12539.2
4749.72,12529.5
4749.72,12263.8
4750.19,12254.1
4751.61,12244.6
4753.96,12235.2
4757.21,12226.1
4761.34,12217.4
4766.31,12209.1
4772.06,12201.3
4778.55,12194.2
4785.7,12187.7
4793.46,12181.9
4801.75,12177
4810.48,12172.8
4819.57,12169.6
4828.94,12167.2
4838.5,12165.8
4848.14,12165.4
5222.16,12165.4
Z" /> 
</g>
<g >
</g>
<g style="fill:#000000; fill-opacity:1.0; 
stroke:#000000; stroke-width:0; stroke-opacity:1; 
stroke-linecap:round; stroke-linejoin:round;">
<path style="fill:#000000; fill-opacity:1.0; 
stroke:#000000; stroke-width:0; stroke-opacity:1; 
stroke-linecap:round; stroke-linejoin:round;fill-rule:evenodd;"
d="M 6609.76,17495.6
6619.31,17497
6628.68,17499.3
6637.78,17502.6
6646.51,17506.7
6654.79,17511.7
6662.55,17517.4
6669.71,17523.9
6676.2,17531.1
6681.95,17538.8
6686.92,17547.1
6691.05,17555.8
6694.3,17564.9
6696.65,17574.3
6698.06,17583.9
6698.54,17593.5
6698.54,17859.3
6698.06,17868.9
6696.65,17878.5
6694.3,17887.8
6691.05,17896.9
6686.92,17905.6
6681.95,17913.9
6676.2,17921.7
6669.71,17928.8
6662.55,17935.3
6654.79,17941.1
6646.51,17946.1
6637.78,17950.2
6628.68,17953.4
6619.31,17955.8
6609.76,17957.2
6600.11,17957.7
6226.1,17957.7
6216.45,17957.2
6206.89,17955.8
6197.53,17953.4
6188.43,17950.2
6179.7,17946.1
6171.41,17941.1
6163.66,17935.3
6156.5,17928.8
6150.01,17921.7
6144.26,17913.9
6139.29,17905.6
6135.16,17896.9
6131.91,17887.8
6129.56,17878.5
6128.15,17868.9
6127.67,17859.3
6127.67,17593.5
6128.15,17583.9
6129.56,17574.3
6131.91,17564.9
6135.16,17555.8
6139.29,17547.1
6144.26,17538.8
6150.01,17531.1
6156.5,17523.9
6163.66,17517.4
6171.41,17511.7
6179.7,17506.7
6188.43,17502.6
6197.53,17499.3
6206.89,17497
6216.45,17495.6
6226.1,17495.1
6600.11,17495.1
Z" /> 
<path style="fill:#000000; fill-opacity:1.0; 
stroke:#000000; stroke-width:0; stroke-opacity:1; 
stroke-linecap:round; stroke-linejoin:round;fill-rule:evenodd;"
d="M 6609.76,16678.6
6619.31,16680
6628.68,16682.4
6637.78,16685.6
6646.51,16689.8
6654.79,16694.7
6662.55,16700.5
6669.71,16707
6676.2,16714.1
6681.95,16721.9
6686.92,16730.2
6691.05,16738.9
6694.3,16748
6696.65,16757.4
6698.06,16766.9
6698.54,16776.6
6698.54,17042.3
6698.06,17052
6696.65,17061.5
6694.3,17070.9
6691.05,17080
6686.92,17088.7
6681.95,17097
6676.2,17104.8
6669.71,17111.9
6662.55,17118.4
6654.79,17124.2
6646.51,17129.1
6637.78,17133.3
6628.68,17136.5
6619.31,17138.9
6609.76,17140.3
6600.11,17140.7
6226.1,17140.7
6216.45,17140.3
6206.89,17138.9
6197.53,17136.5
6188.43,17133.3
6179.7,17129.1
6171.41,17124.2
6163.66,17118.4
6156.5,17111.9
6150.01,17104.8
6144.26,17097
6139.29,17088.7
6135.16,17080
6131.91,17070.9
6129.56,17061.5
6128.15,17052
6127.67,17042.3
6127.67,16776.6
6128.15,16766.9
6129.56,16757.4
6131.91,16748
6135.16,16738.9
6139.29,16730.2
6144.26,16721.9
6150.01,16714.1
6156.5,16707
6163.66,16700.5
6171.41,16694.7
6179.7,16689.8
6188.43,16685.6
6197.53,16682.4
6206.89,16680
6216.45,16678.6
6226.1,16678.2
6600.11,16678.2
Z" /> 
</g>
<g >
</g>
<g style="fill:#000000; fill-opacity:1.0; 
stroke:#000000; stroke-width:0; stroke-opacity:1; 
stroke-linecap:round; stroke-linejoin:round;">
<path style="fill:#000000; fill-opacity:1.0; 
stroke:#000000; stroke-width:0; stroke-opacity:1; 
stroke-linecap:round; stroke-linejoin:round;fill-rule:evenodd;"
d="M 7987.71,17525.1
7997.27,17526.5
8006.64,17528.8
8015.73,17532.1
8024.46,17536.2
8032.75,17541.2
8040.51,17546.9
8047.66,17553.4
8054.15,17560.6
8059.9,17568.3
8064.87,17576.6
8069,17585.4
8072.25,17594.5
8074.6,17603.8
8076.02,17613.4
8076.49,17623
8076.49,17888.8
8076.02,17898.4
8074.6,17908
8072.25,17917.4
8069,17926.4
8064.87,17935.2
8059.9,17943.5
8054.15,17951.2
8047.66,17958.4
8040.51,17964.9
8032.75,17970.6
8024.46,17975.6
8015.73,17979.7
8006.64,17983
7997.27,17985.3
7987.71,17986.7
7978.06,17987.2
7604.05,17987.2
7594.4,17986.7
7584.85,17985.3
7575.48,17983
7566.38,17979.7
7557.65,17975.6
7549.37,17970.6
7541.61,17964.9
7534.45,17958.4
7527.97,17951.2
7522.21,17943.5
7517.25,17935.2
7513.12,17926.4
7509.86,17917.4
7507.52,17908
7506.1,17898.4
7505.62,17888.8
7505.62,17623
7506.1,17613.4
7507.52,17603.8
7509.86,17594.5
7513.12,17585.4
7517.25,17576.6
7522.21,17568.3
7527.97,17560.6
7534.45,17553.4
7541.61,17546.9
7549.37,17541.2
7557.65,17536.2
7566.38,17532.1
7575.48,17528.8
7584.85,17526.5
7594.4,17525.1
7604.05,17524.6
7978.06,17524.6
Z" /> 
<path style="fill:#000000; fill-opacity:1.0; 
stroke:#000000; stroke-width:0; stroke-opacity:1; 
stroke-linecap:round; stroke-linejoin:round;fill-rule:evenodd;"
d="M 7987.71,16708.2
7997.27,16709.6
8006.64,16711.9
8015.73,16715.2
8024.46,16719.3
8032.75,16724.3
8040.51,16730
8047.66,16736.5
8054.15,16743.7
8059.9,16751.4
8064.87,16759.7
8069,16768.4
8072.25,16777.5
8074.6,16786.9
8076.02,16796.5
8076.49,16806.1
8076.49,17071.9
8076.02,17081.5
8074.6,17091.1
8072.25,17100.4
8069,17109.5
8064.87,17118.2
8059.9,17126.5
8054.15,17134.3
8047.66,17141.4
8040.51,17147.9
8032.75,17153.7
8024.46,17158.7
8015.73,17162.8
8006.64,17166
7997.27,17168.4
7987.71,17169.8
7978.06,17170.3
7604.05,17170.3
7594.4,17169.8
7584.85,17168.4
7575.48,17166
7566.38,17162.8
7557.65,17158.7
7549.37,17153.7
7541.61,17147.9
7534.45,17141.4
7527.97,17134.3
7522.21,17126.5
7517.25,17118.2
7513.12,17109.5
7509.86,17100.4
7507.52,17091.1
7506.1,17081.5
7505.62,17071.9
7505.62,16806.1
7506.1,16796.5
7507.52,16786.9
7509.86,16777.5
7513.12,16768.4
7517.25,16759.7
7522.21,16751.4
7527.97,16743.7
7534.45,16736.5
7541.61,16730
7549.37,16724.3
7557.65,16719.3
7566.38,16715.2
7575.48,16711.9
7584.85,16709.6
7594.4,16708.2
7604.05,16707.7
7978.06,16707.7
Z" /> 
</g>
<g >
</g>
<g >
</g>
<g >
</g>
</g> 
</svg>
